<svg width="60" height="60" viewBox="0 0 60 60" fill="none" xmlns="http://www.w3.org/2000/svg"><script xmlns=""/>
<g clip-path="url(#clip0_1864_20863)">
<g clip-path="url(#clip1_1864_20863)">
<path d="M40.61 38.345C40.285 33.575 38.065 28.715 34.185 25.855C33.96 25.685 33.65 25.985 33.825 26.215C37.87 31.62 39.865 38.41 37.83 44.97C33.47 58.875 15.57 62.465 6.21498 51.26C-1.32002 42.055 1.77498 28.75 12.195 23.26C16.11 21.12 20.79 20.28 25.22 21.255C25.535 21.31 25.65 20.87 25.35 20.765C21.945 19.69 18.25 19.545 14.76 20.32C12.385 20.84 10.14 21.925 8.17998 23.355C4.21498 26.22 1.44498 30.625 0.449984 35.4C-2.55502 49.675 9.96998 62.43 24.32 59.605C34.145 57.79 41.435 48.29 40.61 38.345Z" fill="#085C90"/>
<path d="M35.68 19.71C25.855 21.525 18.56 31.025 19.385 40.97C19.71 45.74 21.93 50.6 25.81 53.46C26.035 53.63 26.345 53.33 26.17 53.1C22.125 47.7 20.13 40.91 22.165 34.35C26.525 20.445 44.425 16.855 53.78 28.06C61.315 37.265 58.22 50.57 47.8 56.06C43.885 58.2 39.205 59.04 34.775 58.065C34.46 58.01 34.345 58.45 34.645 58.555C38.05 59.63 41.745 59.775 45.235 59C47.61 58.48 49.855 57.395 51.815 55.965C55.785 53.1 58.555 48.695 59.545 43.915C62.555 29.64 50.03 16.885 35.68 19.71Z" fill="#EDC32A"/>
<path d="M32.36 16.57L30.585 16.535L30 14.855L29.415 16.535L27.64 16.57L29.055 17.64L28.54 19.34L30 18.33L31.46 19.34L31.34 18.95L30.945 17.64L32.36 16.57Z" fill="#CC9F53"/>
<path d="M8.16003 30.01V44.26C8.16003 47.475 9.71003 49.315 12.415 49.315C15.115 49.315 16.67 47.475 16.67 44.26V30.01H14.225V44.26C14.225 46.87 13.05 46.87 12.42 46.87C11.79 46.87 10.615 46.87 10.615 44.26V30.01H8.16003Z" fill="#EDC32A"/>
<path d="M51.8549 36.235V35.085C51.8549 31.86 50.2999 30.01 47.5849 30.01C44.8699 30.01 43.3149 31.86 43.3149 35.085V44.24C43.3149 47.465 44.8699 49.315 47.5849 49.315C50.2999 49.315 51.8549 47.465 51.8549 44.24V38.445H47.7199V40.9H49.3949V44.24C49.3949 46.86 48.2149 46.86 47.5799 46.86C46.9449 46.86 45.7649 46.86 45.7649 44.24V35.08C45.7649 32.46 46.9449 32.46 47.5799 32.46C48.2149 32.46 49.3949 32.46 49.3949 35.08V36.23H51.8549V36.235Z" fill="#EDC32A"/>
<path d="M25.6849 43.845V44.68C25.6849 47.49 27.3799 49.31 30.0049 49.31C32.5999 49.31 34.2099 47.535 34.2099 44.68C34.2099 41.92 31.1749 39.07 30.8349 38.755C29.8399 37.84 28.2549 35.91 28.2549 34.635C28.2549 32.715 29.1399 32.46 30.0049 32.46C30.8049 32.46 31.8699 32.685 31.8699 34.635V35.47H34.3249V34.635C34.3249 31.825 32.6299 30.005 30.0049 30.005C27.4099 30.005 25.7999 31.78 25.7999 34.635C25.7999 37.395 28.8349 40.245 29.1749 40.56C30.1699 41.475 31.7549 43.405 31.7549 44.68C31.7549 46.6 30.8699 46.855 30.0049 46.855C29.2049 46.855 28.1399 46.63 28.1399 44.68V43.845H25.6849Z" fill="#085C90"/>
<path d="M16.875 14.01C16.55 14.14 16.39 14.51 16.52 14.835C16.65 15.16 17.02 15.32 17.345 15.19C17.4 15.165 23.06 12.935 30.17 12.935C37.28 12.935 42.94 15.17 42.995 15.19C43.075 15.22 43.155 15.235 43.23 15.235C43.48 15.235 43.72 15.085 43.82 14.835C43.95 14.51 43.795 14.14 43.465 14.01C43.41 13.99 43.08 13.855 42.515 13.67C44.85 11.11 45.365 8.345 45.22 7.315C45.165 6.925 44.965 6.565 44.655 6.305C44.055 5.81 42.795 5.01 40.825 4.835C40.815 4.73 40.805 4.645 40.795 4.58C40.735 4.215 40.545 3.88 40.26 3.635C39.61 3.075 37.8 1.795 34.795 1.71C34.675 1.505 34.52 1.32 34.33 1.165C33.695 0.635 32.42 0 30 0C27.58 0 26.3 0.635 25.655 1.17C25.47 1.325 25.315 1.51 25.19 1.715C22.19 1.805 20.38 3.08 19.725 3.64C19.435 3.89 19.25 4.225 19.19 4.585C19.18 4.65 19.17 4.74 19.16 4.84C17.185 5.015 15.93 5.815 15.325 6.31C15.015 6.565 14.815 6.925 14.76 7.315C14.615 8.365 15.15 11.18 17.55 13.76C17.155 13.9 16.92 13.995 16.875 14.01ZM43.97 7.49C44.07 8.215 43.58 10.87 41.17 13.245C40.29 12.99 39.19 12.705 37.91 12.45C40.105 10 40.68 7.53 40.815 6.11C42.465 6.28 43.475 6.97 43.85 7.28C43.92 7.34 43.96 7.41 43.97 7.49ZM35.08 2.995C37.49 3.14 38.915 4.145 39.44 4.6C39.5 4.65 39.54 4.72 39.55 4.79C39.565 4.89 39.59 5.1 39.585 5.435C39.575 6.315 39.305 9.34 36.415 12.185C35.49 12.035 34.495 11.905 33.445 11.815C34.59 8.785 34.975 4.485 35.08 2.995ZM26.47 2.15C26.955 1.75 27.96 1.27 30.005 1.27C32.045 1.27 33.05 1.745 33.535 2.15C33.735 2.315 33.84 2.55 33.82 2.805C33.725 4.2 33.335 8.815 32.115 11.72C31.485 11.685 30.84 11.67 30.175 11.67C29.395 11.67 28.635 11.695 27.9 11.74C26.675 8.845 26.28 4.205 26.185 2.805C26.165 2.55 26.27 2.31 26.47 2.15ZM20.455 4.785C20.465 4.715 20.5 4.65 20.56 4.6C21.085 4.15 22.515 3.14 24.92 2.995C25.05 4.83 25.45 8.925 26.57 11.84C25.53 11.94 24.55 12.075 23.64 12.23C20.705 9.37 20.43 6.32 20.42 5.43C20.41 5.1 20.435 4.885 20.455 4.785ZM16.03 7.49C16.04 7.415 16.085 7.34 16.145 7.29C16.615 6.9 17.605 6.275 19.19 6.115C19.325 7.455 19.895 10.015 22.15 12.515C20.865 12.78 19.77 13.075 18.915 13.33C16.435 10.935 15.925 8.23 16.03 7.49Z" fill="#CC9F53"/>
</g>
</g>
<defs>
<clipPath id="clip0_1864_20863">
<rect width="60" height="60" fill="white"/>
</clipPath>
<clipPath id="clip1_1864_20863">
<rect width="60" height="60" fill="white"/>
</clipPath>
</defs>
</svg>